<svg width="20" height="20" viewBox="0 0 20 20" fill="none" xmlns="http://www.w3.org/2000/svg">
<path d="M14.1669 15C14.1669 15.221 14.0791 15.433 13.9228 15.5893C13.7665 15.7455 13.5546 15.8333 13.3336 15.8333L3.33356 15.8333C3.11254 15.8333 2.90058 15.7455 2.7443 15.5893C2.58802 15.433 2.50023 15.221 2.50023 15C2.50023 14.779 2.58802 14.567 2.7443 14.4108C2.90058 14.2545 3.11254 14.1667 3.33356 14.1667L13.3336 14.1667C13.5546 14.1667 13.7665 14.2545 13.9228 14.4108C14.0791 14.567 14.1669 14.779 14.1669 15ZM15.8086 8.35834L16.7836 9.33334L4.16689 9.33334C3.99008 9.33334 3.82051 9.40358 3.69549 9.5286C3.57046 9.65363 3.50023 9.8232 3.50023 10C3.50023 10.1768 3.57046 10.3464 3.69549 10.4714C3.82051 10.5964 3.99008 10.6667 4.16689 10.6667L16.7836 10.6667L15.8086 11.6417C15.7472 11.6989 15.6979 11.7679 15.6637 11.8446C15.6296 11.9212 15.6112 12.004 15.6097 12.0879C15.6083 12.1718 15.6237 12.2552 15.6551 12.333C15.6866 12.4108 15.7333 12.4815 15.7927 12.5409C15.852 12.6002 15.9227 12.647 16.0006 12.6784C16.0784 12.7099 16.1617 12.7253 16.2457 12.7238C16.3296 12.7224 16.4123 12.704 16.489 12.6698C16.5657 12.6357 16.6347 12.5864 16.6919 12.525L18.7752 10.4417C18.8923 10.3245 18.958 10.1656 18.958 10C18.958 9.83438 18.8923 9.67553 18.7752 9.55834L16.6919 7.47501C16.5734 7.36461 16.4167 7.30451 16.2548 7.30736C16.0929 7.31022 15.9384 7.37581 15.8239 7.49032C15.7094 7.60484 15.6438 7.75932 15.6409 7.92124C15.6381 8.08316 15.6982 8.23986 15.8086 8.35834ZM13.3336 5.83334C13.5546 5.83334 13.7665 5.74555 13.9228 5.58927C14.0791 5.43298 14.1669 5.22102 14.1669 5.00001C14.1669 4.779 14.0791 4.56703 13.9228 4.41075C13.7665 4.25447 13.5546 4.16668 13.3336 4.16668L3.33356 4.16668C3.11255 4.16668 2.90058 4.25447 2.7443 4.41075C2.58802 4.56703 2.50023 4.77899 2.50023 5.00001C2.50023 5.22102 2.58802 5.43298 2.7443 5.58926C2.90058 5.74554 3.11254 5.83334 3.33356 5.83334L13.3336 5.83334Z" fill="#003037"/>
</svg>
